<svg width="24" height="24" viewBox="0 0 24 24" fill="none" xmlns="http://www.w3.org/2000/svg">
<path d="M4 17.25H20C20.4142 17.25 20.75 17.5858 20.75 18C20.75 18.4142 20.4142 18.75 20 18.75H4C3.58579 18.75 3.25 18.4142 3.25 18C3.25 17.5858 3.58579 17.25 4 17.25Z" fill="#111111"/>
<path d="M4 11.25H15C15.4142 11.25 15.75 11.5858 15.75 12C15.75 12.4142 15.4142 12.75 15 12.75H4C3.58579 12.75 3.25 12.4142 3.25 12C3.25 11.5858 3.58579 11.25 4 11.25Z" fill="#111111"/>
<path d="M4 5.25H10C10.4142 5.25 10.75 5.58579 10.75 6C10.75 6.41421 10.4142 6.75 10 6.75H4C3.58579 6.75 3.25 6.41421 3.25 6C3.25 5.58579 3.58579 5.25 4 5.25Z" fill="#111111"/>
</svg>
